<?xml version="1.0" standalone="no"?>
<!DOCTYPE svg PUBLIC "-//W3C//DTD SVG 1.1//EN" "http://www.w3.org/Graphics/SVG/1.1/DTD/svg11.dtd" >
<svg xmlns="http://www.w3.org/2000/svg" xmlns:xlink="http://www.w3.org/1999/xlink" version="1.1">
<metadata></metadata>
<defs>
<font id="mariupolbold" horiz-adv-x="1200" >
<font-face units-per-em="2048" ascent="1638" descent="-410" />
<missing-glyph horiz-adv-x="580" />
<glyph horiz-adv-x="0" />
<glyph horiz-adv-x="682" />
<glyph unicode=" "  horiz-adv-x="580" />
<glyph unicode="&#x09;" horiz-adv-x="580" />
<glyph unicode="&#xa0;" horiz-adv-x="580" />
<glyph unicode="!" horiz-adv-x="560" d="M104 146q0 78 50.5 127t125.5 49t125.5 -49t50.5 -127q0 -80 -50 -128t-126 -48t-126 48t-50 128zM134 440v914h290v-914h-290z" />
<glyph unicode="&#x22;" horiz-adv-x="960" d="M150 766v588h230v-588h-230zM580 766v588h230v-588h-230z" />
<glyph unicode="#" horiz-adv-x="1570" d="M200 196v220h200v364h-200v220h200v214h230v-214h310v214h230v-214h200v-220h-200v-364h200v-220h-200v-196h-230v196h-310v-196h-230v196h-200zM630 416h310v364h-310v-364z" />
<glyph unicode="$" d="M80 366h290q0 -126 142 -158v366q-80 18 -150.5 49.5t-134 80.5t-100.5 121t-37 159q0 76 24.5 141.5t74 119.5t132 89.5t191.5 45.5v174h190v-176q111 -14 193 -55t126 -98t64.5 -116.5t20.5 -120.5h-290q0 121 -114 154v-372q79 -15 149 -44t132.5 -74t99.5 -112.5 t37 -149.5q0 -83 -23.5 -152.5t-72 -125.5t-130.5 -92t-192 -46v-174h-190v176q-100 9 -178 38t-125 68t-77 89.5t-41 97.5t-11 97zM362 964q0 -124 150 -164v346q-150 -26 -150 -182zM702 206q77 15 111.5 59.5t34.5 124.5q0 112 -146 152v-336z" />
<glyph unicode="%" horiz-adv-x="1506" d="M80 1072q0 139 87.5 225.5t224.5 86.5t225.5 -86.5t88.5 -225.5t-89 -231.5t-225 -92.5t-224 92.5t-88 231.5zM154 0l930 1354h256l-930 -1354h-256zM278 1072q0 -69 31 -111.5t85 -42.5q53 0 83.5 42.5t30.5 111.5q0 68 -30 107t-84 39q-55 0 -85.5 -39t-30.5 -107z M800 294q0 139 87.5 225.5t224.5 86.5t225.5 -86.5t88.5 -225.5t-89 -231.5t-225 -92.5t-224 92.5t-88 231.5zM998 294q0 -69 31 -111.5t85 -42.5q53 0 83.5 42.5t30.5 111.5q0 68 -30 107t-84 39q-55 0 -85.5 -39t-30.5 -107z" />
<glyph unicode="&#x26;" horiz-adv-x="1320" d="M80 358q0 69 18.5 126.5t54 101t75 76t92.5 62.5q-170 138 -170 310q0 146 125 248t299 102q176 0 296 -98.5t120 -251.5q0 -60 -20.5 -110t-60.5 -89.5t-81.5 -67.5t-99.5 -59l164 -204q12 44 20.5 89t11.5 68l2 23h276q-2 -24 -8.5 -64.5t-39.5 -147.5t-82 -192 l228 -280h-310l-74 88q-145 -118 -342 -118q-221 0 -357.5 105t-136.5 283zM370 388q0 -81 51 -134.5t153 -53.5q111 0 190 76l-256 314q-66 -43 -102 -91t-36 -111zM440 1014q0 -90 110 -172q72 37 111 77.5t39 94.5q0 68 -35.5 104t-90.5 36q-54 0 -94 -40t-40 -100z" />
<glyph unicode="'" horiz-adv-x="530" d="M150 766v588h230v-588h-230z" />
<glyph unicode="(" horiz-adv-x="700" d="M140 510q0 118 16 228t41.5 192t56.5 153.5t62 120t56.5 83.5t41.5 51l16 16h270q-12 -13 -31.5 -37t-69.5 -106.5t-88 -173.5t-69.5 -234.5t-31.5 -292.5t30 -293t72.5 -242.5t85 -176t72.5 -114.5l30 -38h-270q-6 6 -16.5 17.5t-40.5 53t-57.5 88.5t-61 123.5 t-57.5 158.5t-40.5 193.5t-16.5 229.5z" />
<glyph unicode=")" horiz-adv-x="700" d="M0 -354q12 13 31.5 37t69.5 106.5t88 173.5t69.5 234.5t31.5 292.5t-30 293t-72.5 242.5t-85 176t-72.5 114.5l-30 38h270q6 -6 16.5 -17.5t40.5 -53t57.5 -88.5t61 -123.5t57.5 -158.5t40.5 -193.5t16.5 -229.5t-16 -228t-41.5 -192t-56.5 -153.5t-62 -120t-56.5 -83.5 t-41.5 -51l-16 -16h-270z" />
<glyph unicode="*" horiz-adv-x="1072" d="M80 936l74 228l262 -86v276h240v-276l262 86l74 -228l-262 -86l162 -222l-194 -140l-162 222l-162 -222l-194 140l162 222z" />
<glyph unicode="+" horiz-adv-x="1000" d="M80 450v230h300v300h240v-300h300v-230h-300v-310h-240v310h-300z" />
<glyph unicode="," horiz-adv-x="604" d="M6 -132l294 508l200 -114l-294 -508z" />
<glyph unicode="-" horiz-adv-x="800" d="M80 450v230h640v-230h-640z" />
<glyph unicode="." horiz-adv-x="560" d="M104 146q0 78 50.5 127t125.5 49t125.5 -49t50.5 -127q0 -80 -50 -128t-126 -48t-126 48t-50 128z" />
<glyph unicode="/" horiz-adv-x="1080" d="M100 -154l580 1708h300l-580 -1708h-300z" />
<glyph unicode="0" horiz-adv-x="1244" d="M80 692q0 145 28 262t77 196.5t118 132.5t148 77t169 24t169.5 -24t149 -77t119 -132.5t78 -196.5t28.5 -262q0 -181 -41 -321t-115 -226.5t-172 -130.5t-216 -44q-117 0 -214.5 44t-171 130.5t-114 226.5t-40.5 321zM372 692q0 -492 250 -492t250 492q0 113 -15 198 t-38.5 134.5t-58 79.5t-67 40t-71.5 10t-71.5 -10t-67 -40t-58 -79.5t-38.5 -134.5t-15 -198z" />
<glyph unicode="1" horiz-adv-x="820" d="M100 1114v240h480v-1354h-280v1114h-200z" />
<glyph unicode="2" horiz-adv-x="1140" d="M80 0v150l378 358q143 137 216.5 250.5t73.5 221.5q0 174 -184 174q-84 0 -139 -40.5t-55 -113.5h-290q0 50 14 99.5t49.5 102t88.5 92t139.5 65t194.5 25.5q223 0 348.5 -114.5t125.5 -291.5q0 -68 -24.5 -140.5t-61.5 -135.5t-93.5 -133t-108 -123.5t-116.5 -115.5 l-96 -90h520v-240h-980z" />
<glyph unicode="3" horiz-adv-x="1160" d="M80 330h290q0 -47 61 -88.5t139 -41.5q92 0 156 50.5t64 139.5q0 87 -77.5 135.5t-178.5 48.5h-196v240h194q97 0 163.5 53.5t66.5 126.5q0 72 -53.5 116t-144.5 44q-84 0 -136 -40.5t-52 -113.5h-290q0 50 13.5 99.5t48 102t86.5 92t138 65t194 25.5q223 0 353.5 -112 t130.5 -276q0 -211 -244 -290q125 -41 199.5 -119t74.5 -197q0 -189 -135 -304.5t-375 -115.5q-95 0 -176.5 22.5t-138 59.5t-97 84.5t-59.5 97t-19 96.5z" />
<glyph unicode="4" horiz-adv-x="1180" d="M40 336v280l590 738h330v-778h180v-240h-180v-336h-290v336h-630zM304 576h366v472z" />
<glyph unicode="5" horiz-adv-x="1140" d="M80 330h290q0 -68 50.5 -99t117.5 -31q230 0 230 250q0 68 -18.5 115t-52.5 71t-72.5 34t-86.5 10q-178 0 -204 -126h-210l60 800h760v-240h-530l-20 -258q85 44 198 44q213 0 340.5 -123t127.5 -327q0 -103 -32.5 -190t-95.5 -152t-163.5 -101.5t-228.5 -36.5 q-91 0 -168 22.5t-130 59.5t-90 84.5t-54.5 97t-17.5 96.5z" />
<glyph unicode="6" horiz-adv-x="1180" d="M80 606q0 398 140 588t402 190q82 0 150.5 -18t112.5 -46.5t77.5 -63t50.5 -69t27.5 -63t13.5 -46.5l2 -18h-270q0 4 -1.5 10t-11.5 22.5t-25.5 29t-48.5 22.5t-77 10q-117 0 -175 -81t-73 -289q109 116 282 116q196 0 320 -124t124 -326q0 -212 -130.5 -346t-369.5 -134 q-520 0 -520 636zM370 450q0 -135 64 -192.5t164 -57.5q91 0 150.5 59.5t59.5 190.5q0 119 -57.5 174.5t-152.5 55.5q-101 0 -163 -50t-65 -162v-18z" />
<glyph unicode="7" horiz-adv-x="1130" d="M40 1114v240h1050v-100l-580 -1254h-300l514 1114h-684z" />
<glyph unicode="8" horiz-adv-x="1180" d="M80 390q0 240 250 320q-220 88 -220 304q0 161 136.5 265.5t343.5 104.5t343.5 -104.5t136.5 -265.5q0 -217 -222 -304q112 -36 182 -113.5t70 -206.5q0 -191 -141 -305.5t-369 -114.5t-369 114.5t-141 305.5zM370 410q0 -85 56 -147.5t164 -62.5t164 62.5t56 147.5 q0 90 -61 143t-159 53t-159 -53t-61 -143zM400 994q0 -86 53 -130t137 -44t137 44t53 130q0 75 -51.5 117.5t-138.5 42.5t-138.5 -42.5t-51.5 -117.5z" />
<glyph unicode="9" horiz-adv-x="1180" d="M80 904q0 212 130.5 346t369.5 134q520 0 520 -636q0 -398 -140 -588t-402 -190q-82 0 -150.5 18t-112.5 46.5t-77.5 63t-50.5 69t-27.5 63t-13.5 46.5l-2 18h270q0 -4 1.5 -10t11.5 -22.5t25.5 -29t48.5 -22.5t77 -10q116 0 173.5 81.5t72.5 288.5q-103 -116 -280 -116 q-196 0 -320 124t-124 326zM372 904q0 -119 57.5 -174.5t152.5 -55.5q103 0 165.5 52.5t62.5 171.5v6q0 135 -64 192.5t-164 57.5q-91 0 -150.5 -59.5t-59.5 -190.5z" />
<glyph unicode=":" horiz-adv-x="560" d="M104 146q0 78 50.5 127t125.5 49t125.5 -49t50.5 -127q0 -80 -50 -128t-126 -48t-126 48t-50 128zM104 854q0 78 50.5 127t125.5 49t125.5 -49t50.5 -127q0 -80 -50 -128t-126 -48t-126 48t-50 128z" />
<glyph unicode=";" horiz-adv-x="604" d="M6 -132l294 508l200 -114l-294 -508zM126 854q0 78 50.5 127t125.5 49t125.5 -49t50.5 -127q0 -80 -50 -128t-126 -48t-126 48t-50 128z" />
<glyph unicode="&#x3c;" horiz-adv-x="720" d="M20 586l640 394v-256l-242 -138l242 -138v-256z" />
<glyph unicode="=" horiz-adv-x="800" d="M40 250v230h720v-230h-720zM40 650v230h720v-230h-720z" />
<glyph unicode="&#x3e;" horiz-adv-x="720" d="M20 192v256l242 138l-242 138v256l640 -394z" />
<glyph unicode="?" horiz-adv-x="1100" d="M80 1000q0 50 13.5 99.5t47.5 102t85 92t134 65t186 25.5q216 0 345 -108t129 -270q0 -55 -19 -105.5t-49 -89t-66.5 -75t-73 -70.5t-66.5 -68t-49 -74.5t-19 -83.5h-254q0 62 17 116t43.5 93.5t59 74.5t65 66.5t59 63t43.5 70t17 80.5q0 150 -184 150q-75 0 -124.5 -41 t-49.5 -113h-290zM384 146q0 78 50.5 127t125.5 49t125.5 -49t50.5 -127q0 -80 -50 -128t-126 -48t-126 48t-50 128z" />
<glyph unicode="@" horiz-adv-x="2140" d="M120 510q0 164 48.5 304t137 244t210 178t270 111t314.5 37q198 0 368.5 -58.5t292 -162.5t190.5 -253.5t69 -325.5q0 -168 -51 -300t-148.5 -208t-226.5 -76q-155 0 -225.5 41t-88.5 137q-45 -97 -122.5 -152.5t-177.5 -55.5q-80 0 -152 35.5t-127.5 98.5t-88 158.5 t-32.5 207.5t34 204.5t90.5 151.5t127.5 91.5t148 32.5q85 0 156 -42.5t118 -119.5l50 132h190v-572q0 -77 18.5 -107t69.5 -31q80 5 124 99.5t44 274.5q0 263 -180 424.5t-470 161.5q-139 0 -265.5 -43.5t-226.5 -124t-159 -208t-59 -284.5q0 -345 172 -514.5t484 -169.5 h118v-210h-114q-230 0 -407 62t-291.5 178.5t-173 281t-58.5 372.5zM852 470q0 -143 59 -216.5t131 -73.5q67 0 122.5 62t59.5 184v52q-4 132 -59 197t-123 65q-31 0 -62.5 -14.5t-61 -44.5t-48 -85t-18.5 -126z" />
<glyph unicode="A" horiz-adv-x="1400" d="M40 0l498 1354h318l504 -1354h-310l-92 276h-526l-92 -276h-300zM512 516h366l-184 554z" />
<glyph unicode="B" horiz-adv-x="1360" d="M140 0v1354h520q279 0 419.5 -102.5t140.5 -265.5q0 -205 -192 -282q252 -89 252 -314q0 -180 -143 -285t-417 -105h-580zM430 240h288q260 0 260 170q0 81 -80 125.5t-200 44.5h-268v-340zM430 800h208q280 0 280 166q0 148 -260 148h-228v-314z" />
<glyph unicode="C" horiz-adv-x="1440" d="M80 688q0 335 183 515.5t497 180.5q119 0 219 -27t169 -73.5t117 -108.5t70.5 -131.5t22.5 -143.5h-294q0 106 -81 175t-221 69q-75 0 -139.5 -25.5t-117 -77.5t-83 -142.5t-30.5 -210.5t30.5 -214t83 -150.5t117.5 -85t139 -28.5q138 0 223 78.5t85 185.5h290 q0 -94 -37 -181.5t-108 -160.5t-189 -117.5t-266 -44.5q-312 0 -496 190t-184 528z" />
<glyph unicode="D" horiz-adv-x="1500" d="M140 0v1354h600q314 0 497 -173.5t183 -494.5q0 -160 -51 -290.5t-141.5 -216.5t-215 -132.5t-272.5 -46.5h-600zM430 240h308q69 0 134.5 26.5t121.5 78.5t90 140.5t34 200.5q0 113 -32 198t-86.5 134t-120.5 72.5t-141 23.5h-308v-874z" />
<glyph unicode="E" d="M140 0v1354h980v-240h-690v-278h570v-240h-570v-356h690v-240h-980z" />
<glyph unicode="F" horiz-adv-x="1100" d="M140 0v1354h920v-240h-630v-338h550v-240h-550v-536h-290z" />
<glyph unicode="G" horiz-adv-x="1480" d="M80 688q0 335 183 515.5t497 180.5q125 0 227 -27.5t170 -73.5t114 -108.5t66.5 -131t20.5 -143.5h-294q0 109 -75.5 176.5t-226.5 67.5q-75 0 -139.5 -25.5t-117 -77.5t-83 -142.5t-30.5 -210.5q0 -121 31 -214t85 -150t123.5 -85.5t150.5 -28.5q145 0 243 73t131 207 h-416v240h700v-140q0 -136 -43 -249t-125 -196t-208 -129t-284 -46q-325 0 -512.5 189.5t-187.5 528.5z" />
<glyph unicode="H" horiz-adv-x="1450" d="M140 0v1354h290v-518h590v518h290v-1354h-290v596h-590v-596h-290z" />
<glyph unicode="I" horiz-adv-x="570" d="M140 0v1354h290v-1354h-290z" />
<glyph unicode="J" horiz-adv-x="1100" d="M80 406h290q0 -124 40 -165t128 -41q83 0 117.5 40t34.5 150v964h290v-964q0 -210 -107.5 -315t-334.5 -105q-242 0 -350 112.5t-108 323.5z" />
<glyph unicode="K" horiz-adv-x="1350" d="M140 0v1354h290v-518h96l422 518h328l-534 -644l568 -710h-348l-468 596h-64v-596h-290z" />
<glyph unicode="L" horiz-adv-x="1100" d="M140 0v1354h290v-1114h630v-240h-920z" />
<glyph unicode="M" horiz-adv-x="1670" d="M140 0v1354h340l354 -636l356 636h340v-1354h-290v938l-308 -558h-198l-304 544v-924h-290z" />
<glyph unicode="N" horiz-adv-x="1510" d="M140 0v1354h340l600 -956v956h290v-1354h-340l-600 956v-956h-290z" />
<glyph unicode="O" horiz-adv-x="1560" d="M80 688q0 324 191 510t509 186t509 -186t191 -510q0 -326 -192 -522t-508 -196t-508 196t-192 522zM390 688q0 -113 32.5 -205.5t87 -151t124 -90t146.5 -31.5t146.5 31.5t124 90t87 151t32.5 205.5t-32 202t-87.5 143.5t-124 82.5t-146.5 28t-146.5 -28t-124 -82.5 t-87.5 -143.5t-32 -202z" />
<glyph unicode="P" horiz-adv-x="1320" d="M140 0v1354h500q600 0 600 -468q0 -236 -153 -361t-447 -125h-210v-400h-290zM430 640h234q274 10 274 246q0 124 -74.5 176t-225.5 52h-208v-474z" />
<glyph unicode="Q" horiz-adv-x="1560" d="M80 688q0 324 191 510t509 186t509 -186t191 -510q0 -203 -77.5 -359t-218.5 -249l246 -434h-328l-190 334q-70 -10 -132 -10q-316 0 -508 196t-192 522zM390 688q0 -113 32.5 -205.5t87 -151t124 -90t146.5 -31.5h2l-156 278l254 130l164 -292q126 133 126 362 q0 113 -32 202t-87.5 143.5t-124 82.5t-146.5 28t-146.5 -28t-124 -82.5t-87.5 -143.5t-32 -202z" />
<glyph unicode="R" horiz-adv-x="1320" d="M140 0v1354h500q293 0 446.5 -121.5t153.5 -344.5q0 -145 -70.5 -246t-207.5 -152l278 -490h-328l-250 440h-22h-210v-440h-290zM430 680h208q300 0 300 208q0 226 -300 226h-208v-434z" />
<glyph unicode="S" horiz-adv-x="1332" d="M80 426h302q0 -98 83 -157t231 -59q113 0 182.5 45t69.5 115q0 46 -28 78.5t-75.5 51.5t-108.5 32.5t-129 27t-136 31t-129 49t-108.5 75t-75.5 115t-28 164.5q0 75 36.5 144t104.5 124.5t175.5 88.5t237.5 33q119 0 216 -27.5t158.5 -72t103 -104t59 -120t17.5 -122.5 h-302q0 89 -60.5 147.5t-191.5 58.5q-107 0 -178.5 -41t-71.5 -109q0 -53 28 -90t75.5 -58.5t108.5 -36.5t129 -28t136 -29.5t129 -45t108.5 -69.5t75.5 -109t28 -158q0 -82 -35 -153.5t-102.5 -127t-175.5 -87.5t-243 -32q-130 0 -236 26.5t-175.5 71t-116.5 104t-67.5 123 t-20.5 131.5z" />
<glyph unicode="T" horiz-adv-x="1170" d="M40 1114v240h1090v-240h-400v-1114h-290v1114h-400z" />
<glyph unicode="U" horiz-adv-x="1368" d="M120 520v834h290v-834q0 -73 16.5 -129t43 -90t63 -55.5t73.5 -29.5t78 -8t78 8t73.5 29.5t63 55.5t43 90t16.5 129v834h290v-834q0 -116 -29.5 -209t-80.5 -156t-123 -105t-155 -61t-178 -19q-119 0 -218 31t-177.5 94.5t-122.5 172t-44 252.5z" />
<glyph unicode="V" horiz-adv-x="1400" d="M40 1354h320l344 -972l346 972h310l-518 -1354h-278z" />
<glyph unicode="W" horiz-adv-x="1790" d="M40 1354h270l212 -964l256 964h238l254 -946l210 946h270l-300 -1354h-320l-236 888l-234 -888h-320z" />
<glyph unicode="X" horiz-adv-x="1400" d="M40 0l458 676l-442 678h318l326 -526l326 526h318l-442 -678l458 -676h-340l-316 514l-336 -514h-328z" />
<glyph unicode="Y" horiz-adv-x="1360" d="M40 1354h312l334 -566l334 566h300l-494 -804v-550h-290v556z" />
<glyph unicode="Z" horiz-adv-x="1164" d="M40 0v120l674 994h-674v240h1084v-110l-682 -1004h682v-240h-1084z" />
<glyph unicode="[" horiz-adv-x="780" d="M200 -354v1708h520v-230h-240v-1248h240v-230h-520z" />
<glyph unicode="\" horiz-adv-x="1080" d="M100 1554h300l580 -1708h-300z" />
<glyph unicode="]" horiz-adv-x="780" d="M60 -124h240v1248h-240v230h520v-1708h-520v230z" />
<glyph unicode="_" horiz-adv-x="1280" d="M20 100h1240v-230h-1240v230z" />
<glyph unicode="a" horiz-adv-x="1254" d="M80 506q0 231 128 377.5t332 146.5q197 0 308 -178l56 148h210v-1000h-210l-62 146q-108 -176 -302 -176q-134 0 -239 69.5t-163 191.5t-58 275zM372 506q0 -144 65.5 -225t164.5 -81q95 0 156.5 76t65.5 214v30q-4 137 -65 208.5t-157 71.5q-100 0 -165 -75.5 t-65 -218.5z" />
<glyph unicode="b" horiz-adv-x="1244" d="M140 0v1354h280v-470q106 146 284 146q215 0 337.5 -147t122.5 -383q0 -234 -125.5 -382t-334.5 -148q-197 0 -308 178l-56 -148h-200zM420 500q0 -137 58 -218.5t164 -81.5q109 0 169.5 82.5t60.5 217.5q0 137 -60.5 218.5t-169.5 81.5q-103 0 -162.5 -88t-59.5 -212z " />
<glyph unicode="c" horiz-adv-x="1130" d="M80 506q0 231 146 377.5t374 146.5q236 0 366 -150q80 -91 80 -246h-290q0 73 -32 114q-40 52 -134 52q-96 0 -157 -79t-61 -215q0 -137 61.5 -221.5t156.5 -84.5q92 0 136 54q34 43 34 116h290q0 -152 -78 -244q-133 -156 -372 -156q-227 0 -373.5 152t-146.5 384z" />
<glyph unicode="d" horiz-adv-x="1244" d="M80 506q0 231 128 377.5t332 146.5q175 0 284 -142v466h280v-1354h-200l-62 146q-108 -176 -302 -176q-134 0 -239 69.5t-163 191.5t-58 275zM372 506q0 -144 65.5 -225t164.5 -81q98 0 160 80.5t62 225.5v14q-4 137 -65 208.5t-157 71.5q-100 0 -165 -75.5t-65 -218.5z " />
<glyph unicode="e" horiz-adv-x="1170" d="M80 506q0 241 143.5 382.5t370.5 141.5q219 0 357.5 -142t138.5 -356v-82h-714q2 -108 65 -179t165 -71q111 0 158 62q28 36 28 68h290q0 -40 -18.5 -91t-53.5 -95q-138 -174 -404 -174q-227 0 -376.5 147.5t-149.5 388.5zM376 620h430q-2 87 -57.5 143.5t-154.5 56.5 q-100 0 -158 -57t-60 -143z" />
<glyph unicode="f" horiz-adv-x="766" d="M40 770v230h160v10q0 166 94.5 255t273.5 89h158v-230h-172q-59 0 -84 -28t-30 -96h286v-230h-246v-770h-280v770h-160z" />
<glyph unicode="g" horiz-adv-x="1224" d="M80 540q0 134 52.5 244t159 178t248.5 68q180 0 288 -178l56 148h200v-814q0 -275 -128 -422.5t-394 -147.5q-118 0 -202.5 23.5t-130.5 66t-66.5 93t-20.5 113.5h290q0 -30 34 -48t96 -18q60 0 101 14.5t74 51t49.5 106t17.5 174.5q-105 -142 -264 -142 q-142 0 -248.5 68t-159 178t-52.5 244zM372 540q0 -65 20.5 -116.5t54 -81.5t73.5 -46t82 -16q81 0 139.5 68t62.5 180v12q0 116 -59 188t-143 72q-42 0 -82 -16t-73.5 -46t-54 -81.5t-20.5 -116.5z" />
<glyph unicode="h" horiz-adv-x="1260" d="M140 0v1354h280v-466q114 142 300 142q204 0 312 -121t108 -329v-580h-280v560v10q0 98 -58.5 164t-159.5 66q-96 0 -157.5 -69.5t-64.5 -164.5v-566h-280z" />
<glyph unicode="i" horiz-adv-x="540" d="M100 1260q0 66 49 107t123 41q73 0 121.5 -41t48.5 -107q0 -68 -48 -108t-122 -40t-123 40.5t-49 107.5zM140 0v1000h260v-1000h-260z" />
<glyph unicode="j" horiz-adv-x="630" d="M10 -112h72q55 0 86.5 49t31.5 143v920h280v-1000q0 -116 -52 -197.5t-134.5 -119t-185.5 -37.5h-98v242zM168 1260q0 66 49 107t123 41q73 0 121.5 -41t48.5 -107q0 -68 -48 -108t-122 -40t-123 40.5t-49 107.5z" />
<glyph unicode="k" horiz-adv-x="1118" d="M140 0v1354h280v-714h68l286 360h308l-380 -480l396 -520h-328l-312 410h-38v-410h-280z" />
<glyph unicode="l" horiz-adv-x="560" d="M140 0v1354h280v-1354h-280z" />
<glyph unicode="m" horiz-adv-x="1780" d="M140 0v1000h200l46 -122q92 152 274 152q215 0 264 -250q18 51 45.5 93.5t69 79t103.5 57t138 20.5q182 0 281 -111.5t99 -338.5v-580h-280v560v20q0 117 -37 168.5t-121 51.5q-77 0 -128 -70t-54 -164v-566h-280v580q0 115 -37.5 167.5t-120.5 52.5q-77 0 -128 -70 t-54 -164v-566h-280z" />
<glyph unicode="n" horiz-adv-x="1260" d="M140 0v1000h200l54 -146q111 176 326 176q204 0 312 -121t108 -329v-580h-280v580q-3 94 -61.5 157t-156.5 63q-96 0 -157.5 -69.5t-64.5 -164.5v-566h-280z" />
<glyph unicode="o" d="M80 506q0 231 146 377.5t374 146.5t374 -146.5t146 -377.5q0 -232 -146.5 -384t-373.5 -152t-373.5 152t-146.5 384zM370 506q0 -138 61 -222t169 -84t169 84t61 222q0 136 -60.5 215t-169.5 79t-169.5 -79t-60.5 -215z" />
<glyph unicode="p" horiz-adv-x="1244" d="M140 -354v1354h200l54 -154q109 184 310 184q215 0 337.5 -144t122.5 -380q0 -235 -126 -385.5t-334 -150.5q-178 0 -284 146v-470h-280zM420 506q0 -137 58.5 -221.5t163.5 -84.5q108 0 169 85t61 221q0 137 -60 215.5t-170 78.5q-101 0 -160 -81.5t-62 -200.5v-12z" />
<glyph unicode="q" horiz-adv-x="1244" d="M80 506q0 231 128 377.5t332 146.5q197 0 308 -178l56 148h200v-1354h-280v472q-108 -148 -284 -148q-134 0 -239 69.5t-163 191.5t-58 275zM372 506q0 -144 65.5 -225t164.5 -81q95 0 156.5 76t65.5 214v30q-4 137 -65 208.5t-157 71.5q-100 0 -165 -75.5t-65 -218.5z " />
<glyph unicode="r" horiz-adv-x="760" d="M140 0v1000h200l70 -184q72 184 270 184h40v-250h-40q-124 0 -190.5 -66t-69.5 -176v-508h-280z" />
<glyph unicode="s" horiz-adv-x="1060" d="M80 306h290q0 -56 44 -81t136 -25q67 0 102.5 25t35.5 65q0 30 -32 51.5t-83 36t-112.5 29.5t-123 38.5t-112.5 57t-83 92t-32 135.5q0 138 102.5 219t305.5 81q113 0 201.5 -28.5t141 -77t79 -107t26.5 -123.5h-290q0 56 -38 81t-120 25q-58 0 -87 -24.5t-29 -65.5 q0 -30 25 -51.5t65.5 -33t92.5 -24t106 -23.5t106 -33.5t92.5 -52.5t65.5 -82t25 -120q0 -140 -110.5 -230t-319.5 -90q-126 0 -220 28.5t-147 77t-78 106.5t-25 124z" />
<glyph unicode="t" horiz-adv-x="766" d="M40 770v230h160v240h280v-240h246v-230h-246v-346q0 -182 94 -182h152v-242h-178q-174 0 -261 97t-87 267v406h-160z" />
<glyph unicode="u" horiz-adv-x="1260" d="M120 420v580h280v-560v-16q0 -44 9 -80.5t29.5 -70.5t61.5 -53.5t98 -19.5q67 0 117 25.5t76 66.5t37.5 83.5t11.5 86.5v538h280v-1000h-200l-50 130q-104 -160 -330 -160q-208 0 -314 115.5t-106 334.5z" />
<glyph unicode="v" d="M40 1000h310l254 -632l256 632h300l-418 -1000h-278z" />
<glyph unicode="w" horiz-adv-x="1500" d="M40 1000h260l162 -590l166 590h244l166 -590l162 590h260l-240 -1000h-280l-190 608l-190 -608h-280z" />
<glyph unicode="x" horiz-adv-x="1180" d="M60 0l338 502l-322 498h308l216 -358l196 358h308l-322 -498l338 -502h-330l-204 344l-208 -344h-318z" />
<glyph unicode="y" horiz-adv-x="1160" d="M40 1000h300l256 -670l234 670h290l-374 -990q-74 -181 -185.5 -272.5t-272.5 -91.5h-98v242h92q109 0 170 138z" />
<glyph unicode="z" horiz-adv-x="984" d="M60 0v110l466 660h-466v230h864v-110l-468 -660h468v-230h-864z" />
<glyph unicode="{" horiz-adv-x="912" d="M200 380v242h72q69 0 91.5 32.5t22.5 129.5v226q0 166 94.5 255t273.5 89h118v-242h-92q-69 0 -91.5 -32.5t-22.5 -129.5v-226q0 -163 -132 -224q132 -58 132 -222v-228q0 -97 22.5 -129.5t91.5 -32.5h92v-242h-118q-179 0 -273.5 89t-94.5 255v228q0 97 -22.5 129.5 t-91.5 32.5h-72z" />
<glyph unicode="|" horiz-adv-x="560" d="M140 -154v1708h280v-1708h-280z" />
<glyph unicode="}" horiz-adv-x="912" d="M40 -112h92q69 0 91.5 32.5t22.5 129.5v226q0 165 132 222q-132 60 -132 224v228q0 97 -22.5 129.5t-91.5 32.5h-92v242h118q179 0 273.5 -89t94.5 -255v-228q0 -97 22.5 -129.5t91.5 -32.5h72v-242h-72q-69 0 -91.5 -32.5t-22.5 -129.5v-226q0 -166 -94.5 -255 t-273.5 -89h-118v242z" />
<glyph unicode="~" horiz-adv-x="1336" d="M40 582l42 40q90 93 147.5 129.5t120.5 36.5q54 0 132 -24l412 -126q10 -4 32 -4q63 0 132 72l66 66l172 -170l-84 -84q-78 -78 -129 -109t-109 -31q-52 0 -142 28l-412 126q-20 4 -30 4q-54 0 -130 -70l-48 -54z" />
<glyph unicode="&#xa3;" horiz-adv-x="1240" d="M80 0v150q11 6 28.5 18t62 50.5t79 79t62.5 102.5t28 124v6h-220v230h172q-17 48 -23 68.5t-14.5 65t-8.5 88.5q0 201 119 301.5t321 100.5q103 0 185.5 -30.5t132.5 -81t76 -113.5t26 -131h-290q0 61 -36 93.5t-94 32.5q-63 0 -105.5 -44.5t-42.5 -125.5q0 -31 6 -64 t18 -80t18 -80h340v-230h-320v-6q0 -140 -90 -284h650v-240h-1080z" />
<glyph unicode="&#xa5;" horiz-adv-x="1360" d="M40 1354h290l354 -574l356 574h280l-304 -494h210v-230h-352l-48 -78v-28h400v-230h-400v-294h-290v294h-400v230h400v34l-46 72h-354v230h212z" />
<glyph unicode="&#xa8;" horiz-adv-x="560" d="M-92 1260q0 66 49 107t123 41q73 0 121.5 -41t48.5 -107q0 -68 -48 -108t-122 -40t-123 40.5t-49 107.5zM308 1260q0 66 49 107t123 41q73 0 121.5 -41t48.5 -107q0 -68 -48 -108t-122 -40t-123 40.5t-49 107.5z" />
<glyph unicode="&#xa9;" horiz-adv-x="1602" d="M80 688q0 214 92.5 373t255 241t372.5 82t373 -82t256 -241t93 -373t-93 -378t-256.5 -252t-372.5 -88t-372.5 88t-255.5 252t-92 378zM276 690q0 -129 44.5 -234.5t118.5 -172.5t167.5 -103t195.5 -36t195 36t167 103t118 172.5t44 234.5q0 128 -44 229.5t-118 164 t-166.5 94.5t-195.5 32q-82 0 -158 -19.5t-143 -61.5t-117 -102.5t-79 -147t-29 -189.5zM444 690q0 160 100 262t250 102q147 0 236.5 -78t89.5 -198h-202q0 116 -118 116q-68 0 -110 -54.5t-42 -149.5t43 -155.5t109 -60.5q61 0 90.5 31.5t29.5 86.5h202q0 -120 -91 -200 t-237 -80q-149 0 -249.5 109t-100.5 269z" />
<glyph unicode="&#xab;" horiz-adv-x="1248" d="M40 526l340 394h288l-328 -394l328 -394h-288zM540 526l340 394h288l-328 -394l328 -394h-288z" />
<glyph unicode="&#xad;" horiz-adv-x="800" d="M80 450v230h640v-230h-640z" />
<glyph unicode="&#xae;" horiz-adv-x="1338" d="M80 816q0 262 163.5 415t424.5 153q262 0 426 -153t164 -415q0 -264 -165.5 -425t-424.5 -161t-423.5 161t-164.5 425zM240 818q0 -106 36.5 -192.5t97 -141t137 -83.5t159.5 -29q66 0 128 18t116 55t94.5 89.5t64 125.5t23.5 158q0 104 -35.5 187t-96 133.5t-135.5 77 t-159 26.5t-159.5 -26.5t-137 -77t-97.5 -133.5t-36 -187zM430 516v576h270q111 0 178.5 -50t67.5 -142q0 -124 -122 -170l118 -214h-190l-106 192h-42v-192h-174zM604 840h80q52 0 75 13t23 47q0 26 -19.5 36t-62.5 12h-96v-108z" />
<glyph unicode="&#xbb;" horiz-adv-x="1248" d="M40 132l326 394l-326 394h288l340 -394l-340 -394h-288zM540 132l326 394l-326 394h288l340 -394l-340 -394h-288z" />
<glyph unicode="&#x401;" d="M140 0v1354h980v-240h-690v-278h570v-240h-570v-356h690v-240h-980zM258 1614q0 66 49 107t123 41q73 0 121.5 -41t48.5 -107q0 -68 -48 -108t-122 -40t-123 40.5t-49 107.5zM658 1614q0 66 49 107t123 41q73 0 121.5 -41t48.5 -107q0 -68 -48 -108t-122 -40t-123 40.5 t-49 107.5z" />
<glyph unicode="&#x402;" horiz-adv-x="1660" d="M40 1114v240h1090v-240h-400v-260h272q518 0 518 -412v-88q0 -116 -52 -197.5t-134.5 -119t-185.5 -37.5h-98v242h72q55 0 86.5 49t31.5 143v8q0 172 -240 172h-270v-614h-290v1114h-400z" />
<glyph unicode="&#x404;" horiz-adv-x="1440" d="M80 688q0 335 183 515.5t497 180.5q119 0 219 -27t169 -73.5t117 -108.5t70.5 -131.5t22.5 -143.5h-294q0 106 -81 175t-221 69q-330 0 -382 -328h464v-240h-466q12 -98 47 -170t87.5 -114t114.5 -62t135 -20q138 0 223 78.5t85 185.5h290q0 -94 -37 -181.5t-108 -160.5 t-189 -117.5t-266 -44.5q-312 0 -496 190t-184 528z" />
<glyph unicode="&#x405;" horiz-adv-x="1332" d="M80 426h302q0 -98 83 -157t231 -59q113 0 182.5 45t69.5 115q0 46 -28 78.5t-75.5 51.5t-108.5 32.5t-129 27t-136 31t-129 49t-108.5 75t-75.5 115t-28 164.5q0 75 36.5 144t104.5 124.5t175.5 88.5t237.5 33q119 0 216 -27.5t158.5 -72t103 -104t59 -120t17.5 -122.5 h-302q0 89 -60.5 147.5t-191.5 58.5q-107 0 -178.5 -41t-71.5 -109q0 -53 28 -90t75.5 -58.5t108.5 -36.5t129 -28t136 -29.5t129 -45t108.5 -69.5t75.5 -109t28 -158q0 -82 -35 -153.5t-102.5 -127t-175.5 -87.5t-243 -32q-130 0 -236 26.5t-175.5 71t-116.5 104t-67.5 123 t-20.5 131.5z" />
<glyph unicode="&#x406;" horiz-adv-x="570" d="M140 0v1354h290v-1354h-290z" />
<glyph unicode="&#x407;" horiz-adv-x="570" d="M-86 1614q0 66 49 107t123 41q73 0 121.5 -41t48.5 -107q0 -68 -48 -108t-122 -40t-123 40.5t-49 107.5zM140 0v1354h290v-1354h-290zM314 1614q0 66 49 107t123 41q73 0 121.5 -41t48.5 -107q0 -68 -48 -108t-122 -40t-123 40.5t-49 107.5z" />
<glyph unicode="&#x408;" horiz-adv-x="1100" d="M80 406h290q0 -124 40 -165t128 -41q83 0 117.5 40t34.5 150v964h290v-964q0 -210 -107.5 -315t-334.5 -105q-242 0 -350 112.5t-108 323.5z" />
<glyph unicode="&#x409;" horiz-adv-x="2080" d="M40 0v272h56q87 0 135.5 161.5t48.5 484.5v436h910v-400h210q600 0 600 -468q0 -236 -153 -361t-447 -125h-500v1114h-330v-250q0 -864 -468 -864h-62zM1190 240h208q300 0 300 246q0 124 -74.5 176t-225.5 52h-208v-474z" />
<glyph unicode="&#x40a;" horiz-adv-x="2200" d="M140 0v1354h290v-518h590v518h290v-400h210q600 0 600 -468q0 -236 -153 -361t-447 -125h-500v596h-590v-596h-290zM1310 240h208q300 0 300 246q0 124 -74.5 176t-225.5 52h-208v-474z" />
<glyph unicode="&#x40b;" horiz-adv-x="1660" d="M40 1114v240h1090v-240h-400v-260h272q144 0 246.5 -33.5t161 -97.5t84.5 -146t26 -189v-388h-280v388q0 113 -55.5 169.5t-184.5 56.5h-270v-614h-290v1114h-400z" />
<glyph unicode="&#x40e;" horiz-adv-x="1440" d="M40 1354h316l398 -710l326 710h320l-498 -1000q-190 -354 -494 -354h-98v252h92q146 0 204 132zM360 1642h272q3 -31 29.5 -63.5t60.5 -32.5h20q34 0 60.5 32.5t29.5 63.5h272q-17 -107 -120.5 -182.5t-235.5 -75.5h-32q-132 0 -235.5 75.5t-120.5 182.5z" />
<glyph unicode="&#x40f;" horiz-adv-x="1430" d="M140 0v1354h290v-1114h570v1114h290v-1354h-440v-354h-290v354h-420z" />
<glyph unicode="&#x410;" horiz-adv-x="1400" d="M40 0l498 1354h318l504 -1354h-310l-92 276h-526l-92 -276h-300zM512 516h366l-184 554z" />
<glyph unicode="&#x411;" horiz-adv-x="1320" d="M140 0v1354h900v-240h-610v-280h210q600 0 600 -408q0 -207 -153 -316.5t-447 -109.5h-500zM430 240h234q133 3 203.5 45.5t70.5 140.5q0 94 -73.5 131t-226.5 37h-208v-354z" />
<glyph unicode="&#x412;" horiz-adv-x="1360" d="M140 0v1354h520q279 0 419.5 -102.5t140.5 -265.5q0 -205 -192 -282q252 -89 252 -314q0 -180 -143 -285t-417 -105h-580zM430 240h288q260 0 260 170q0 81 -80 125.5t-200 44.5h-268v-340zM430 800h208q280 0 280 166q0 148 -260 148h-228v-314z" />
<glyph unicode="&#x413;" horiz-adv-x="940" d="M140 0v1354h760v-240h-470v-1114h-290z" />
<glyph unicode="&#x414;" horiz-adv-x="1430" d="M40 240h134q86 253 86 678v436h970v-1114h160v-594h-290v354h-770v-354h-290v594zM464 240h476v874h-390v-250q0 -389 -86 -624z" />
<glyph unicode="&#x415;" d="M140 0v1354h980v-240h-690v-278h570v-240h-570v-356h690v-240h-980z" />
<glyph unicode="&#x416;" horiz-adv-x="1930" d="M40 0l468 712l-434 642h308l342 -518h96v518h290v-518h94l344 518h308l-436 -642l470 -712h-328l-386 596h-66v-596h-290v596h-68l-384 -596h-328z" />
<glyph unicode="&#x417;" horiz-adv-x="1380" d="M80 426h302q0 -100 78.5 -158t237.5 -58q300 0 300 200q0 160 -300 160h-118v240h86q141 2 206.5 36.5t65.5 119.5q0 83 -75 130.5t-203 47.5q-120 0 -186 -60.5t-66 -145.5h-302q0 62 19.5 123t63 119.5t106 103.5t157 72.5t208.5 27.5q147 0 262.5 -36t182.5 -94.5 t101 -127t34 -140.5q0 -216 -226 -290q286 -76 286 -306q0 -83 -36.5 -156.5t-107.5 -133.5t-189.5 -95t-268.5 -35q-136 0 -244 27t-177 70.5t-114.5 104t-64 123t-18.5 131.5z" />
<glyph unicode="&#x418;" horiz-adv-x="1510" d="M140 0v1354h290v-956l600 956h340v-1354h-290v956l-600 -956h-340z" />
<glyph unicode="&#x419;" horiz-adv-x="1510" d="M140 0v1354h290v-956l600 956h340v-1354h-290v956l-600 -956h-340zM384 1642h272q3 -31 29.5 -63.5t60.5 -32.5h20q34 0 60.5 32.5t29.5 63.5h272q-17 -107 -120.5 -182.5t-235.5 -75.5h-32q-132 0 -235.5 75.5t-120.5 182.5z" />
<glyph unicode="&#x41a;" horiz-adv-x="1350" d="M140 0v1354h290v-518h96l422 518h328l-534 -644l568 -710h-348l-468 596h-64v-596h-290z" />
<glyph unicode="&#x41b;" horiz-adv-x="1330" d="M40 0v272h56q87 0 135.5 161.5t48.5 484.5v436h910v-1354h-290v1114h-330v-250q0 -864 -468 -864h-62z" />
<glyph unicode="&#x41c;" horiz-adv-x="1670" d="M140 0v1354h340l354 -636l356 636h340v-1354h-290v938l-308 -558h-198l-304 544v-924h-290z" />
<glyph unicode="&#x41d;" horiz-adv-x="1450" d="M140 0v1354h290v-518h590v518h290v-1354h-290v596h-590v-596h-290z" />
<glyph unicode="&#x41e;" horiz-adv-x="1560" d="M80 688q0 324 191 510t509 186t509 -186t191 -510q0 -326 -192 -522t-508 -196t-508 196t-192 522zM390 688q0 -113 32.5 -205.5t87 -151t124 -90t146.5 -31.5t146.5 31.5t124 90t87 151t32.5 205.5t-32 202t-87.5 143.5t-124 82.5t-146.5 28t-146.5 -28t-124 -82.5 t-87.5 -143.5t-32 -202z" />
<glyph unicode="&#x41f;" horiz-adv-x="1430" d="M140 0v1354h1150v-1354h-290v1114h-570v-1114h-290z" />
<glyph unicode="&#x420;" horiz-adv-x="1320" d="M140 0v1354h500q600 0 600 -468q0 -236 -153 -361t-447 -125h-210v-400h-290zM430 640h234q274 10 274 246q0 124 -74.5 176t-225.5 52h-208v-474z" />
<glyph unicode="&#x421;" horiz-adv-x="1440" d="M80 688q0 335 183 515.5t497 180.5q119 0 219 -27t169 -73.5t117 -108.5t70.5 -131.5t22.5 -143.5h-294q0 106 -81 175t-221 69q-75 0 -139.5 -25.5t-117 -77.5t-83 -142.5t-30.5 -210.5t30.5 -214t83 -150.5t117.5 -85t139 -28.5q138 0 223 78.5t85 185.5h290 q0 -94 -37 -181.5t-108 -160.5t-189 -117.5t-266 -44.5q-312 0 -496 190t-184 528z" />
<glyph unicode="&#x422;" horiz-adv-x="1170" d="M40 1114v240h1090v-240h-400v-1114h-290v1114h-400z" />
<glyph unicode="&#x423;" horiz-adv-x="1440" d="M40 1354h316l398 -710l326 710h320l-498 -1000q-190 -354 -494 -354h-98v252h92q146 0 204 132z" />
<glyph unicode="&#x424;" horiz-adv-x="1750" d="M80 706q0 116 36.5 211t109 166.5t188.5 111t266 39.5h50v120h290v-120h50q150 0 266 -39.5t188.5 -111t109 -166.5t36.5 -211q0 -119 -39 -218t-113 -172.5t-188.5 -114.5t-259.5 -41h-50v-160h-290v160h-50q-145 0 -259.5 41t-188.5 114.5t-113 172.5t-39 218zM382 706 q0 -149 81 -227.5t219 -78.5h48v594h-62q-139 -5 -212.5 -77.5t-73.5 -210.5zM1020 400h48q138 0 219 78.5t81 227.5q0 143 -77 215.5t-223 72.5h-48v-594z" />
<glyph unicode="&#x425;" horiz-adv-x="1400" d="M40 0l458 676l-442 678h318l326 -526l326 526h318l-442 -678l458 -676h-340l-316 514l-336 -514h-328z" />
<glyph unicode="&#x426;" horiz-adv-x="1490" d="M140 0v1354h290v-1114h570v1114h290v-1114h160v-594h-290v354h-1020z" />
<glyph unicode="&#x427;" horiz-adv-x="1300" d="M80 966v388h280v-388q0 -141 54.5 -203.5t185.5 -62.5h270v654h290v-1354h-290v460h-272q-145 0 -246.5 34t-160.5 102t-85 158t-26 212z" />
<glyph unicode="&#x428;" horiz-adv-x="1930" d="M140 0v1354h290v-1114h390v1114h290v-1114h390v1114h290v-1354h-1650z" />
<glyph unicode="&#x429;" horiz-adv-x="1990" d="M140 0v1354h290v-1114h390v1114h290v-1114h390v1114h290v-1114h160v-594h-290v354h-1520z" />
<glyph unicode="&#x42a;" horiz-adv-x="1680" d="M40 1114v240h750v-400h210q600 0 600 -468q0 -236 -153 -361t-447 -125h-500v1114h-460zM790 240h208q300 0 300 246q0 124 -74.5 176t-225.5 52h-208v-474z" />
<glyph unicode="&#x42b;" horiz-adv-x="1790" d="M140 0v1354h290v-400h150q600 0 600 -468q0 -236 -153 -361t-447 -125h-440zM430 240h174q274 10 274 246q0 124 -74.5 176t-225.5 52h-148v-474zM1360 0v1354h290v-1354h-290z" />
<glyph unicode="&#x42c;" horiz-adv-x="1320" d="M140 0v1354h290v-400h210q600 0 600 -468q0 -236 -153 -361t-447 -125h-500zM430 240h208q300 0 300 246q0 124 -74.5 176t-225.5 52h-208v-474z" />
<glyph unicode="&#x42d;" horiz-adv-x="1440" d="M80 880q0 94 37 181.5t108 160.5t189 117.5t266 44.5q312 0 496 -190t184 -528q0 -335 -183 -515.5t-497 -180.5q-119 0 -219 27t-169 73.5t-117 108.5t-70.5 131.5t-22.5 143.5h294q0 -106 81 -175t221 -69q330 0 380 328h-462v240h464q-16 128 -72.5 212t-134 119 t-175.5 35q-138 0 -223 -78.5t-85 -185.5h-290z" />
<glyph unicode="&#x42e;" horiz-adv-x="2142" d="M140 0v1354h290v-518h260q41 260 217 404t453 144q210 0 368 -82.5t246 -240.5t88 -373q0 -326 -193 -522t-509 -196q-291 0 -470.5 168t-205.5 458h-254v-596h-290zM972 688q0 -113 32.5 -205.5t87 -151t124 -90t146.5 -31.5t146.5 31.5t124 90t87 151t32.5 205.5 t-32 202t-87.5 143.5t-124 82.5t-146.5 28t-146.5 -28t-124 -82.5t-87.5 -143.5t-32 -202z" />
<glyph unicode="&#x42f;" horiz-adv-x="1320" d="M80 0l272 450q-272 103 -272 418q0 236 153 361t447 125h500v-1354h-290v400h-210h-38l-244 -400h-318zM382 868q0 -124 74.5 -176t225.5 -52h208v474h-234q-274 -10 -274 -246z" />
<glyph unicode="&#x430;" horiz-adv-x="1254" d="M80 506q0 231 128 377.5t332 146.5q197 0 308 -178l56 148h210v-1000h-210l-62 146q-108 -176 -302 -176q-134 0 -239 69.5t-163 191.5t-58 275zM372 506q0 -144 65.5 -225t164.5 -81q95 0 156.5 76t65.5 214v30q-4 137 -65 208.5t-157 71.5q-100 0 -165 -75.5 t-65 -218.5z" />
<glyph unicode="&#x431;" horiz-adv-x="1224" d="M120 450v216q0 130 32 236.5t85.5 179t130 126t160 83t180.5 43.5l336 50l40 -256l-320 -50q-107 -17 -176 -40t-124 -65.5t-79.5 -110.5t-24.5 -168q47 107 130.5 161.5t187.5 54.5q206 0 336 -130t130 -330q0 -96 -37 -183t-103.5 -153t-165.5 -105t-216 -39 q-112 0 -207.5 39t-159.5 105t-99.5 153t-35.5 183zM400 450q0 -106 62.5 -178t159.5 -72t163.5 72.5t66.5 177.5q0 103 -65.5 166.5t-164.5 63.5q-98 0 -160 -63t-62 -167z" />
<glyph unicode="&#x432;" horiz-adv-x="1140" d="M140 0v1000h460q440 0 440 -270q0 -174 -256 -218q61 -7 108.5 -21.5t86.5 -39.5t60 -66t21 -95q0 -132 -107 -211t-333 -79h-480zM400 210h200q168 0 168 110q0 100 -168 100h-200v-210zM400 590h180q90 0 129 23t39 77q0 100 -168 100h-180v-200z" />
<glyph unicode="&#x433;" horiz-adv-x="900" d="M140 0v1000h720v-230h-440v-770h-280z" />
<glyph unicode="&#x434;" horiz-adv-x="1260" d="M40 230h136q64 276 64 548v222h820v-770h160v-584h-280v354h-620v-354h-280v584zM458 230h322v540h-260v-46q0 -236 -62 -494z" />
<glyph unicode="&#x435;" horiz-adv-x="1170" d="M80 506q0 241 143.5 382.5t370.5 141.5q219 0 357.5 -142t138.5 -356v-82h-714q2 -108 65 -179t165 -71q111 0 158 62q28 36 28 68h290q0 -40 -18.5 -91t-53.5 -95q-138 -174 -404 -174q-227 0 -376.5 147.5t-149.5 388.5zM376 620h430q-2 87 -57.5 143.5t-154.5 56.5 q-100 0 -158 -57t-60 -143z" />
<glyph unicode="&#x436;" horiz-adv-x="1596" d="M40 0l298 522l-282 478h298l212 -360h82v360h280v-360h86l228 360h298l-302 -478l318 -522h-308l-250 410h-70v-410h-280v410h-66l-234 -410h-308z" />
<glyph unicode="&#x437;" horiz-adv-x="1090" d="M80 306h290q0 -126 170 -126q91 0 129.5 29.5t38.5 84.5q0 56 -41.5 81t-132.5 25h-114v210h100q94 3 131 31.5t37 78.5q0 51 -31.5 75.5t-116.5 24.5q-87 0 -118.5 -32t-31.5 -94h-290q0 49 14 95.5t47.5 91t82.5 77t125.5 52.5t170.5 20q217 0 333.5 -82t116.5 -218 q0 -166 -216 -218q236 -48 236 -242q0 -135 -125 -217.5t-345 -82.5q-97 0 -176 20t-131 53t-87 77t-50.5 90.5t-15.5 95.5z" />
<glyph unicode="&#x438;" horiz-adv-x="1240" d="M140 0v1000h280v-590l380 590h300v-1000h-280v590l-380 -590h-300z" />
<glyph unicode="&#x439;" horiz-adv-x="1240" d="M140 0v1000h280v-590l380 590h300v-1000h-280v590l-380 -590h-300zM244 1354h272q3 -31 29.5 -63.5t60.5 -32.5h20q34 0 60.5 32.5t29.5 63.5h272q-17 -107 -120.5 -182.5t-235.5 -75.5h-32q-132 0 -235.5 75.5t-120.5 182.5z" />
<glyph unicode="&#x43a;" horiz-adv-x="1118" d="M140 0v1000h280v-360h68l286 360h308l-380 -480l396 -520h-328l-312 410h-38v-410h-280z" />
<glyph unicode="&#x43b;" horiz-adv-x="1160" d="M40 0v262h56q81 0 112.5 123.5t31.5 392.5v222h780v-1000h-280v770h-220v-46q0 -265 -47 -426t-137 -229.5t-234 -68.5h-62z" />
<glyph unicode="&#x43c;" horiz-adv-x="1460" d="M140 0v1000h320l270 -452l270 452h320v-1000h-280v618l-228 -384h-164l-228 384v-618h-280z" />
<glyph unicode="&#x43d;" horiz-adv-x="1220" d="M140 0v1000h280v-360h380v360h280v-1000h-280v410h-380v-410h-280z" />
<glyph unicode="&#x43e;" d="M80 506q0 231 146 377.5t374 146.5t374 -146.5t146 -377.5q0 -232 -146.5 -384t-373.5 -152t-373.5 152t-146.5 384zM370 506q0 -138 61 -222t169 -84t169 84t61 222q0 136 -60.5 215t-169.5 79t-169.5 -79t-60.5 -215z" />
<glyph unicode="&#x43f;" d="M140 0v1000h920v-1000h-280v770h-360v-770h-280z" />
<glyph unicode="&#x440;" horiz-adv-x="1244" d="M140 -354v1354h200l54 -154q109 184 310 184q215 0 337.5 -144t122.5 -380q0 -235 -126 -385.5t-334 -150.5q-178 0 -284 146v-470h-280zM420 506q0 -137 58.5 -221.5t163.5 -84.5q108 0 169 85t61 221q0 137 -60 215.5t-170 78.5q-101 0 -160 -81.5t-62 -200.5v-12z" />
<glyph unicode="&#x441;" horiz-adv-x="1130" d="M80 506q0 231 146 377.5t374 146.5q236 0 366 -150q80 -91 80 -246h-290q0 73 -32 114q-40 52 -134 52q-96 0 -157 -79t-61 -215q0 -137 61.5 -221.5t156.5 -84.5q92 0 136 54q34 43 34 116h290q0 -152 -78 -244q-133 -156 -372 -156q-227 0 -373.5 152t-146.5 384z" />
<glyph unicode="&#x442;" horiz-adv-x="1000" d="M40 770v230h920v-230h-320v-770h-280v770h-320z" />
<glyph unicode="&#x443;" horiz-adv-x="1160" d="M40 1000h300l256 -670l234 670h290l-374 -990q-74 -181 -185.5 -272.5t-272.5 -91.5h-98v242h92q109 0 170 138z" />
<glyph unicode="&#x444;" horiz-adv-x="1604" d="M80 506q0 101 36 190.5t102 157t165 107t217 39.5h62v354h280v-354h62q118 0 217 -39.5t165 -107t102 -157t36 -190.5q0 -135 -63.5 -249.5t-184 -185.5t-272.5 -71h-62v-354h-280v354h-62q-152 0 -272.5 71t-184 185.5t-63.5 249.5zM372 506q0 -121 75.5 -198.5 t194.5 -77.5h20v540h-20q-121 0 -195.5 -72.5t-74.5 -191.5zM942 230h20q119 0 194.5 77.5t75.5 198.5q0 119 -74.5 191.5t-195.5 72.5h-20v-540z" />
<glyph unicode="&#x445;" horiz-adv-x="1180" d="M60 0l338 502l-322 498h308l216 -358l196 358h308l-322 -498l338 -502h-330l-204 344l-208 -344h-318z" />
<glyph unicode="&#x446;" horiz-adv-x="1260" d="M140 0v1000h280v-770h360v770h280v-770h160v-584h-280v354h-800z" />
<glyph unicode="&#x447;" horiz-adv-x="1120" d="M80 700v300h280v-280v-14q0 -186 158 -186q87 0 182 18v462h280v-1000h-280v326q-126 -26 -240 -26q-380 0 -380 400z" />
<glyph unicode="&#x448;" horiz-adv-x="1640" d="M140 0v1000h280v-770h260v770h280v-770h260v770h280v-1000h-1360z" />
<glyph unicode="&#x449;" horiz-adv-x="1700" d="M140 0v1000h280v-770h260v770h280v-770h260v770h280v-770h160v-584h-280v354h-1240z" />
<glyph unicode="&#x44a;" horiz-adv-x="1340" d="M40 770v230h580v-300h176q215 0 339.5 -86t124.5 -254q0 -164 -117 -262t-323 -98h-480v770h-300zM620 230h180q76 0 122 35t46 95q0 110 -174 110h-174v-240z" />
<glyph unicode="&#x44b;" horiz-adv-x="1530" d="M140 0v1000h280v-300h116q215 0 339.5 -86t124.5 -254q0 -164 -117 -262t-323 -98h-420zM420 230h134q70 3 112 38t42 92q0 110 -174 110h-114v-240zM1130 0v1000h260v-1000h-260z" />
<glyph unicode="&#x44c;" horiz-adv-x="1140" d="M140 0v1000h280v-300h176q215 0 339.5 -86t124.5 -254q0 -164 -117 -262t-323 -98h-480zM420 230h180q76 0 122 35t46 95q0 110 -174 110h-174v-240z" />
<glyph unicode="&#x44d;" horiz-adv-x="1130" d="M40 650q0 55 19.5 119t58.5 105q133 156 392 156q226 0 363 -148t137 -382t-137 -382t-363 -148q-256 0 -386 150q-40 41 -60 105t-20 121h290q0 -18 8.5 -48t23.5 -46q40 -52 154 -52q90 0 152.5 48t65.5 132h-332v230h332q-3 83 -67 136.5t-151 53.5q-112 0 -156 -54 q-16 -16 -25 -47t-9 -49h-290z" />
<glyph unicode="&#x44e;" horiz-adv-x="1700" d="M140 0v1000h280v-360h190q36 179 165.5 284.5t322.5 105.5q240 0 381 -143t141 -377q0 -236 -142 -388t-380 -152q-199 0 -332 121.5t-162 318.5h-184v-410h-280zM870 510q0 -138 61.5 -224t168.5 -86t168.5 86t61.5 224q0 136 -60.5 213t-169.5 77t-169.5 -77 t-60.5 -213z" />
<glyph unicode="&#x44f;" horiz-adv-x="1140" d="M80 0l238 370q-238 74 -238 300q0 162 120 246t320 84h480v-1000h-280v340h-112l-220 -340h-308zM372 670q0 -120 174 -120h174v220h-200q-76 -3 -112 -26.5t-36 -73.5z" />
<glyph unicode="&#x451;" horiz-adv-x="1170" d="M80 506q0 241 143.5 382.5t370.5 141.5q219 0 357.5 -142t138.5 -356v-82h-714q2 -108 65 -179t165 -71q111 0 158 62q28 36 28 68h290q0 -40 -18.5 -91t-53.5 -95q-138 -174 -404 -174q-227 0 -376.5 147.5t-149.5 388.5zM222 1260q0 66 49 107t123 41q73 0 121.5 -41 t48.5 -107q0 -68 -48 -108t-122 -40t-123 40.5t-49 107.5zM376 620h430q-2 87 -57.5 143.5t-154.5 56.5q-100 0 -158 -57t-60 -143zM622 1260q0 66 49 107t123 41q73 0 121.5 -41t48.5 -107q0 -68 -48 -108t-122 -40t-123 40.5t-49 107.5z" />
<glyph unicode="&#x452;" horiz-adv-x="1180" d="M40 884v230h160v240h280v-240h286v-230h-286v-212q131 28 240 28q380 0 380 -400v-300q0 -116 -52 -197.5t-134.5 -119t-185.5 -37.5h-98v242h72q52 0 83.5 44t34.5 128v240q-3 180 -158 180q-92 0 -182 -18v-462h-280v884h-160z" />
<glyph unicode="&#x454;" horiz-adv-x="1130" d="M80 500q0 234 137 382t363 148q256 0 386 -150q40 -41 60 -105t20 -121h-290q0 18 -8.5 48t-23.5 46q-40 52 -154 52q-90 0 -152.5 -48.5t-65.5 -131.5h332v-230h-332q3 -85 66.5 -137.5t151.5 -52.5q112 0 156 54q16 16 25 47t9 49h290q0 -55 -19.5 -119t-58.5 -105 q-133 -156 -392 -156q-226 0 -363 148t-137 382z" />
<glyph unicode="&#x455;" horiz-adv-x="1060" d="M80 306h290q0 -56 44 -81t136 -25q67 0 102.5 25t35.5 65q0 30 -32 51.5t-83 36t-112.5 29.5t-123 38.5t-112.5 57t-83 92t-32 135.5q0 138 102.5 219t305.5 81q113 0 201.5 -28.5t141 -77t79 -107t26.5 -123.5h-290q0 56 -38 81t-120 25q-58 0 -87 -24.5t-29 -65.5 q0 -30 25 -51.5t65.5 -33t92.5 -24t106 -23.5t106 -33.5t92.5 -52.5t65.5 -82t25 -120q0 -140 -110.5 -230t-319.5 -90q-126 0 -220 28.5t-147 77t-78 106.5t-25 124z" />
<glyph unicode="&#x456;" horiz-adv-x="540" d="M100 1260q0 66 49 107t123 41q73 0 121.5 -41t48.5 -107q0 -68 -48 -108t-122 -40t-123 40.5t-49 107.5zM140 0v1000h260v-1000h-260z" />
<glyph unicode="&#x457;" horiz-adv-x="540" d="M-102 1260q0 66 49 107t123 41q73 0 121.5 -41t48.5 -107q0 -68 -48 -108t-122 -40t-123 40.5t-49 107.5zM140 0v1000h260v-1000h-260zM298 1260q0 66 49 107t123 41q73 0 121.5 -41t48.5 -107q0 -68 -48 -108t-122 -40t-123 40.5t-49 107.5z" />
<glyph unicode="&#x458;" horiz-adv-x="630" d="M10 -112h72q55 0 86.5 49t31.5 143v920h280v-1000q0 -116 -52 -197.5t-134.5 -119t-185.5 -37.5h-98v242zM168 1260q0 66 49 107t123 41q73 0 121.5 -41t48.5 -107q0 -68 -48 -108t-122 -40t-123 40.5t-49 107.5z" />
<glyph unicode="&#x459;" horiz-adv-x="1720" d="M40 0v262h56q81 0 112.5 123.5t31.5 392.5v222h780v-300h156q215 0 339.5 -86t124.5 -254q0 -164 -117 -262t-323 -98h-480v770h-200v-46q0 -265 -47 -426t-137 -229.5t-234 -68.5h-62zM1020 230h160q76 0 122 35t46 95q0 110 -174 110h-154v-240z" />
<glyph unicode="&#x45a;" horiz-adv-x="1800" d="M140 0v1000h280v-360h380v360h280v-300h176q215 0 339.5 -86t124.5 -254q0 -164 -117 -262t-323 -98h-480v410h-380v-410h-280zM1080 230h180q76 0 122 35t46 95q0 110 -174 110h-174v-240z" />
<glyph unicode="&#x45b;" horiz-adv-x="1180" d="M40 884v230h160v240h280v-240h286v-230h-286v-212q131 28 240 28q380 0 380 -400v-300h-280v280v14q0 186 -158 186q-92 0 -182 -18v-462h-280v884h-160z" />
<glyph unicode="&#x45e;" horiz-adv-x="1160" d="M40 1000h300l256 -670l234 670h290l-374 -990l-4 -10q-74 -175 -185 -264.5t-269 -89.5h-98v242h92q109 0 170 138zM208 1354h272q3 -31 29.5 -63.5t60.5 -32.5h20q34 0 60.5 32.5t29.5 63.5h272q-17 -107 -120.5 -182.5t-235.5 -75.5h-32q-132 0 -235.5 75.5 t-120.5 182.5z" />
<glyph unicode="&#x45f;" d="M140 0v1000h280v-770h360v770h280v-1000h-320v-354h-280v354h-320z" />
<glyph unicode="&#x490;" horiz-adv-x="980" d="M140 0v1354h540v344h280v-584h-530v-1114h-290z" />
<glyph unicode="&#x491;" horiz-adv-x="880" d="M140 0v1000h440v354h280v-584h-440v-770h-280z" />
<glyph unicode="&#x2000;" horiz-adv-x="881" />
<glyph unicode="&#x2001;" horiz-adv-x="1762" />
<glyph unicode="&#x2002;" horiz-adv-x="881" />
<glyph unicode="&#x2003;" horiz-adv-x="1762" />
<glyph unicode="&#x2004;" horiz-adv-x="587" />
<glyph unicode="&#x2005;" horiz-adv-x="440" />
<glyph unicode="&#x2006;" horiz-adv-x="293" />
<glyph unicode="&#x2007;" horiz-adv-x="293" />
<glyph unicode="&#x2008;" horiz-adv-x="220" />
<glyph unicode="&#x2009;" horiz-adv-x="352" />
<glyph unicode="&#x200a;" horiz-adv-x="97" />
<glyph unicode="&#x2010;" horiz-adv-x="800" d="M80 450v230h640v-230h-640z" />
<glyph unicode="&#x2011;" horiz-adv-x="800" d="M80 450v230h640v-230h-640z" />
<glyph unicode="&#x2012;" horiz-adv-x="800" d="M80 450v230h640v-230h-640z" />
<glyph unicode="&#x2013;" horiz-adv-x="1000" d="M40 450v230h920v-230h-920z" />
<glyph unicode="&#x2014;" horiz-adv-x="1280" d="M20 450v230h1240v-230h-1240z" />
<glyph unicode="&#x2018;" horiz-adv-x="534" d="M58 1310l216 78l202 -552l-216 -78z" />
<glyph unicode="&#x2019;" horiz-adv-x="534" d="M58 836l202 552l216 -78l-202 -552z" />
<glyph unicode="&#x201a;" horiz-adv-x="534" d="M78 -164l202 552l216 -78l-202 -552z" />
<glyph unicode="&#x201c;" horiz-adv-x="934" d="M58 1310l216 78l202 -552l-216 -78zM458 1310l216 78l202 -552l-216 -78z" />
<glyph unicode="&#x201d;" horiz-adv-x="934" d="M58 836l202 552l216 -78l-202 -552zM458 836l202 552l216 -78l-202 -552z" />
<glyph unicode="&#x201e;" horiz-adv-x="934" d="M78 -164l202 552l216 -78l-202 -552zM478 -164l202 552l216 -78l-202 -552z" />
<glyph unicode="&#x202f;" horiz-adv-x="352" />
<glyph unicode="&#x2039;" horiz-adv-x="748" d="M40 526l340 394h288l-328 -394l328 -394h-288z" />
<glyph unicode="&#x203a;" horiz-adv-x="748" d="M40 132l326 394l-326 394h288l340 -394l-340 -394h-288z" />
<glyph unicode="&#x205f;" horiz-adv-x="440" />
<glyph unicode="&#x20ac;" horiz-adv-x="1310" d="M40 392v230h172v66v42h-172v230h200q49 210 181 317t333 107q104 0 186.5 -27t131.5 -67.5t81.5 -94t44.5 -101.5t12 -94h-270q0 23 -10.5 48t-31 49.5t-58.5 40.5t-86 16q-97 0 -151.5 -46.5t-78.5 -147.5h356v-230h-378v-42v-66h378v-230h-354q24 -101 78.5 -146.5 t149.5 -45.5q50 0 88 16t58 40.5t30 49.5t10 48h270q0 -46 -12 -94t-44.5 -101.5t-81.5 -94t-131.5 -67.5t-186.5 -27q-198 0 -328 105t-182 317h-204z" />
<glyph unicode="&#x25fc;" horiz-adv-x="1000" d="M0 0v1000h1000v-1000h-1000z" />
</font>
</defs>
</svg>
